<svg width="34" height="27" viewBox="0 0 34 27" fill="none" xmlns="http://www.w3.org/2000/svg">
<path d="M33.9998 8.88652V23.4765C33.9998 24.285 33.709 24.9771 33.1273 25.5529C32.5457 26.1286 31.8465 26.4165 31.0297 26.4165H3.70539C2.88863 26.4165 2.18943 26.1286 1.6078 25.5529C1.02617 24.9771 0.735352 24.285 0.735352 23.4765V8.88652C1.27986 9.48678 1.9048 10.0197 2.61019 10.4852C7.09 13.4987 10.1652 15.6119 11.8359 16.8246C12.5413 17.3391 13.1136 17.7403 13.5529 18.0282C13.9922 18.3161 14.577 18.6101 15.3071 18.9102C16.0372 19.2103 16.7179 19.3604 17.349 19.3604H17.3676H17.3861C18.0173 19.3604 18.6979 19.2103 19.428 18.9102C20.1582 18.6101 20.7429 18.3161 21.1822 18.0282C21.6215 17.7403 22.1939 17.3391 22.8993 16.8246C25.003 15.3179 28.0845 13.2047 32.1435 10.4852C32.8489 10.0074 33.4677 9.47453 33.9998 8.88652ZM33.9998 3.4842C33.9998 4.45197 33.6966 5.37685 33.0902 6.25887C32.4838 7.14088 31.7289 7.89426 30.8256 8.51902C26.1725 11.7163 23.2767 13.707 22.1382 14.491C22.0144 14.5767 21.7515 14.7635 21.3493 15.0514C20.9471 15.3393 20.613 15.572 20.3469 15.7497C20.0808 15.9273 19.7591 16.1264 19.3816 16.3469C19.0042 16.5674 18.6484 16.7328 18.3143 16.843C17.9801 16.9533 17.6708 17.0084 17.3861 17.0084H17.3676H17.349C17.0644 17.0084 16.755 16.9533 16.4209 16.843C16.0867 16.7328 15.731 16.5674 15.3535 16.3469C14.9761 16.1264 14.6543 15.9273 14.3882 15.7497C14.1222 15.572 13.7881 15.3393 13.3859 15.0514C12.9837 14.7635 12.7207 14.5767 12.5969 14.491C11.4708 13.707 9.84966 12.5891 7.73351 11.1375C5.61735 9.68585 4.3489 8.81302 3.92814 8.51902C3.16088 8.00451 2.43694 7.29707 1.7563 6.39668C1.07567 5.49629 0.735352 4.66022 0.735352 3.88846C0.735352 2.93295 0.992136 2.13669 1.50571 1.49968C2.01927 0.862669 2.7525 0.544167 3.70539 0.544167H31.0297C31.8341 0.544167 32.5302 0.832045 33.1181 1.4078C33.7059 1.98356 33.9998 2.67569 33.9998 3.4842Z" fill="white"/>
</svg>
